<mxfile host="app.diagrams.net" modified="2020-07-29T12:19:11.810Z" agent="5.0 (Macintosh; Intel Mac OS X 10_15_3) AppleWebKit/605.1.15 (KHTML, like Gecko) Version/13.0.5 Safari/605.1.15" etag="-dBN1QNp_kqlKtVaRWdu" version="13.5.5" type="github">
  <diagram id="6a731a19-8d31-9384-78a2-239565b7b9f0" name="Page-1">
    <mxGraphModel dx="5941" dy="3067" grid="1" gridSize="10" guides="1" tooltips="1" connect="1" arrows="1" fold="1" page="1" pageScale="1" pageWidth="1169" pageHeight="827" background="#ffffff" math="0" shadow="0">
      <root>
        <mxCell id="0" />
        <mxCell id="1" parent="0" />
        <mxCell id="1350" value="&lt;b&gt;&lt;font style=&quot;font-size: 24px&quot;&gt;Structure Solution Techniques&lt;/font&gt;&lt;/b&gt;" style="ellipse;whiteSpace=wrap;html=1;shadow=0;fontFamily=Helvetica;fontSize=20;fontColor=#FFFFFF;align=center;strokeWidth=3;fillColor=#1699D3;strokeColor=none;" parent="1" vertex="1">
          <mxGeometry x="-10" y="505" width="170" height="178" as="geometry" />
        </mxCell>
        <mxCell id="1351" value="&lt;b&gt;&lt;font style=&quot;font-size: 24px&quot;&gt;Diffraction pattern symmetrics&lt;/font&gt;&lt;/b&gt;" style="ellipse;whiteSpace=wrap;html=1;shadow=0;fontFamily=Helvetica;fontSize=20;fontColor=#FFFFFF;align=center;strokeWidth=3;fillColor=#F08705;strokeColor=none;gradientColor=none;" parent="1" vertex="1">
          <mxGeometry x="485" y="-50" width="167.5" height="170" as="geometry" />
        </mxCell>
        <mxCell id="1352" value="&lt;b&gt;&lt;font style=&quot;font-size: 24px&quot;&gt;Experiment Techniques&lt;/font&gt;&lt;/b&gt;" style="ellipse;whiteSpace=wrap;html=1;shadow=0;fontFamily=Helvetica;fontSize=20;fontColor=#FFFFFF;align=center;strokeWidth=3;fillColor=#E85642;strokeColor=none;" parent="1" vertex="1">
          <mxGeometry x="1490" y="-25" width="160" height="155" as="geometry" />
        </mxCell>
        <mxCell id="1353" value="&lt;b&gt;&lt;font style=&quot;font-size: 36px&quot;&gt;Types&lt;/font&gt;&lt;/b&gt;" style="ellipse;whiteSpace=wrap;html=1;shadow=0;fontFamily=Helvetica;fontSize=20;fontColor=#FFFFFF;align=center;strokeWidth=3;fillColor=#1699D3;strokeColor=none;" parent="1" vertex="1">
          <mxGeometry x="2120" y="600" width="160" height="153" as="geometry" />
        </mxCell>
        <mxCell id="1355" value="Clusters" style="ellipse;whiteSpace=wrap;html=1;shadow=0;fontFamily=Helvetica;fontSize=20;fontColor=#FFFFFF;align=center;strokeWidth=3;fillColor=#F08705;strokeColor=none;" parent="1" vertex="1">
          <mxGeometry x="952.5" y="1660" width="120" height="120" as="geometry" />
        </mxCell>
        <mxCell id="1356" value="Structure" style="ellipse;whiteSpace=wrap;html=1;shadow=0;fontFamily=Helvetica;fontSize=20;fontColor=#FFFFFF;align=center;strokeWidth=3;fillColor=#E85642;strokeColor=none;" parent="1" vertex="1">
          <mxGeometry x="177.5" y="1229.5" width="120" height="120" as="geometry" />
        </mxCell>
        <mxCell id="1357" value="&lt;font style=&quot;font-size: 18px&quot;&gt;IcosaHedral QC&lt;/font&gt;" style="rounded=1;fillColor=#f5af58;strokeColor=none;strokeWidth=3;shadow=0;html=1;fontColor=#FFFFFF;" parent="1" vertex="1">
          <mxGeometry x="330" y="140" width="142.5" height="60" as="geometry" />
        </mxCell>
        <mxCell id="1358" value="&lt;font style=&quot;font-size: 18px&quot;&gt;3D Model&lt;/font&gt;" style="rounded=1;fillColor=#64BBE2;strokeColor=none;strokeWidth=3;shadow=0;html=1;fontColor=#FFFFFF;" parent="1" vertex="1">
          <mxGeometry x="-190" y="340" width="137.5" height="50" as="geometry" />
        </mxCell>
        <mxCell id="1359" style="endArrow=none;strokeWidth=6;strokeColor=#1699D3;html=1;" parent="1" source="1515" target="1350" edge="1">
          <mxGeometry relative="1" as="geometry" />
        </mxCell>
        <mxCell id="1360" style="endArrow=none;strokeWidth=6;strokeColor=#f08705;html=1;" parent="1" source="1515" target="1351" edge="1">
          <mxGeometry relative="1" as="geometry" />
        </mxCell>
        <mxCell id="1361" style="endArrow=none;strokeWidth=6;strokeColor=#E85642;html=1;" parent="1" source="1515" target="1352" edge="1">
          <mxGeometry relative="1" as="geometry" />
        </mxCell>
        <mxCell id="1362" style="endArrow=none;strokeWidth=6;strokeColor=#1699D3;html=1;" parent="1" source="1515" target="1353" edge="1">
          <mxGeometry relative="1" as="geometry" />
        </mxCell>
        <mxCell id="1365" value="" style="edgeStyle=none;endArrow=none;strokeWidth=6;strokeColor=#F08705;html=1;" parent="1" source="1515" target="1355" edge="1">
          <mxGeometry x="181" y="226.5" width="100" height="100" as="geometry">
            <mxPoint x="181" y="326.5" as="sourcePoint" />
            <mxPoint x="281" y="226.5" as="targetPoint" />
          </mxGeometry>
        </mxCell>
        <mxCell id="1366" value="" style="edgeStyle=none;endArrow=none;strokeWidth=6;strokeColor=#E85642;html=1;" parent="1" source="1515" target="1356" edge="1">
          <mxGeometry x="181" y="226.5" width="100" height="100" as="geometry">
            <mxPoint x="181" y="326.5" as="sourcePoint" />
            <mxPoint x="281" y="226.5" as="targetPoint" />
          </mxGeometry>
        </mxCell>
        <mxCell id="1367" value="&lt;font style=&quot;font-size: 18px&quot;&gt;nD Structure Analysis&lt;/font&gt;" style="rounded=1;fillColor=#64BBE2;strokeColor=none;strokeWidth=3;shadow=0;html=1;fontColor=#FFFFFF;" parent="1" vertex="1">
          <mxGeometry x="-310" y="700" width="200" height="53" as="geometry" />
        </mxCell>
        <mxCell id="1378" value="" style="edgeStyle=none;endArrow=none;strokeWidth=3;strokeColor=#64BBE2;html=1;" parent="1" source="1350" target="1367" edge="1">
          <mxGeometry x="-730" y="330" width="100" height="100" as="geometry">
            <mxPoint x="-730" y="430" as="sourcePoint" />
            <mxPoint x="-630" y="330" as="targetPoint" />
          </mxGeometry>
        </mxCell>
        <mxCell id="1379" value="" style="edgeStyle=none;endArrow=none;strokeWidth=3;strokeColor=#64BBE2;html=1;" parent="1" source="1350" target="1358" edge="1">
          <mxGeometry x="-730" y="330" width="100" height="100" as="geometry">
            <mxPoint x="-730" y="430" as="sourcePoint" />
            <mxPoint x="-630" y="330" as="targetPoint" />
          </mxGeometry>
        </mxCell>
        <mxCell id="1391" value="&lt;font style=&quot;font-size: 18px&quot;&gt;Dodecagonal QC&lt;/font&gt;" style="rounded=1;fillColor=#f5af58;strokeColor=none;strokeWidth=3;shadow=0;html=1;fontColor=#FFFFFF;" parent="1" vertex="1">
          <mxGeometry x="280" y="-80" width="147.5" height="50" as="geometry" />
        </mxCell>
        <mxCell id="1393" value="&lt;font style=&quot;font-size: 18px&quot;&gt;Decagonal QC&lt;/font&gt;" style="rounded=1;fillColor=#f5af58;strokeColor=none;strokeWidth=3;shadow=0;html=1;fontColor=#FFFFFF;" parent="1" vertex="1">
          <mxGeometry x="630" y="-130" width="130" height="50" as="geometry" />
        </mxCell>
        <mxCell id="1397" value="&lt;font style=&quot;font-size: 18px&quot;&gt;Octagonal QC&lt;/font&gt;" style="rounded=1;fillColor=#f5af58;strokeColor=none;strokeWidth=3;shadow=0;html=1;fontColor=#FFFFFF;" parent="1" vertex="1">
          <mxGeometry x="710" y="80" width="130" height="50" as="geometry" />
        </mxCell>
        <mxCell id="1399" value="" style="edgeStyle=none;endArrow=none;strokeWidth=3;strokeColor=#F5AF58;html=1;" parent="1" source="1351" target="1357" edge="1">
          <mxGeometry x="-582.5" y="-230" width="100" height="100" as="geometry">
            <mxPoint x="-582.5" y="-130" as="sourcePoint" />
            <mxPoint x="-482.5" y="-230" as="targetPoint" />
          </mxGeometry>
        </mxCell>
        <mxCell id="1403" value="" style="edgeStyle=none;endArrow=none;strokeWidth=3;strokeColor=#F5AF58;html=1;" parent="1" source="1351" target="1391" edge="1">
          <mxGeometry x="-582.5" y="-230" width="100" height="100" as="geometry">
            <mxPoint x="-582.5" y="-130" as="sourcePoint" />
            <mxPoint x="-482.5" y="-230" as="targetPoint" />
          </mxGeometry>
        </mxCell>
        <mxCell id="1405" value="" style="edgeStyle=none;endArrow=none;strokeWidth=3;strokeColor=#F5AF58;html=1;" parent="1" source="1351" target="1393" edge="1">
          <mxGeometry x="-582.5" y="-230" width="100" height="100" as="geometry">
            <mxPoint x="-582.5" y="-130" as="sourcePoint" />
            <mxPoint x="-482.5" y="-230" as="targetPoint" />
          </mxGeometry>
        </mxCell>
        <mxCell id="1409" value="" style="edgeStyle=none;endArrow=none;strokeWidth=3;strokeColor=#F5AF58;html=1;" parent="1" source="1351" target="1397" edge="1">
          <mxGeometry x="-582.5" y="-230" width="100" height="100" as="geometry">
            <mxPoint x="-582.5" y="-130" as="sourcePoint" />
            <mxPoint x="-482.5" y="-230" as="targetPoint" />
          </mxGeometry>
        </mxCell>
        <mxCell id="1412" value="&lt;font style=&quot;font-size: 18px&quot;&gt;High Resolution Transmission Electron Microscopy&lt;/font&gt;" style="rounded=1;fillColor=#f08e81;strokeColor=none;strokeWidth=3;shadow=0;html=1;fontColor=#FFFFFF;" parent="1" vertex="1">
          <mxGeometry x="1772.5" y="-60" width="447.5" height="70" as="geometry" />
        </mxCell>
        <mxCell id="1417" value="&lt;font style=&quot;font-size: 18px&quot;&gt;Kossel Technique&lt;/font&gt;" style="rounded=1;fillColor=#f08e81;strokeColor=none;strokeWidth=3;shadow=0;html=1;fontColor=#FFFFFF;" parent="1" vertex="1">
          <mxGeometry x="1180" y="50" width="190" height="80" as="geometry" />
        </mxCell>
        <mxCell id="1418" value="&lt;font style=&quot;font-size: 18px&quot;&gt;Neutron Diffraction&lt;/font&gt;" style="rounded=1;fillColor=#f08e81;strokeColor=none;strokeWidth=3;shadow=0;html=1;fontColor=#FFFFFF;" parent="1" vertex="1">
          <mxGeometry x="1240" y="-150" width="221" height="60" as="geometry" />
        </mxCell>
        <mxCell id="1419" value="&lt;font style=&quot;font-size: 18px&quot;&gt;X-Ray Diffraction Techniques&lt;/font&gt;" style="rounded=1;fillColor=#f08e81;strokeColor=none;strokeWidth=3;shadow=0;html=1;fontColor=#FFFFFF;" parent="1" vertex="1">
          <mxGeometry x="1550" y="-190" width="270" height="70" as="geometry" />
        </mxCell>
        <mxCell id="1421" value="&lt;font size=&quot;3&quot;&gt;Selected Area Electron Defraction&lt;/font&gt;" style="rounded=1;fillColor=#f08e81;strokeColor=none;strokeWidth=3;shadow=0;html=1;fontColor=#FFFFFF;" parent="1" vertex="1">
          <mxGeometry x="1540" y="240" width="260" height="80" as="geometry" />
        </mxCell>
        <mxCell id="1422" value="&lt;div&gt;&lt;span style=&quot;font-size: 18px&quot;&gt;Convergent Beam Electron Diffraction&lt;/span&gt;&lt;/div&gt;" style="rounded=1;fillColor=#f08e81;strokeColor=none;strokeWidth=3;shadow=0;html=1;fontColor=#FFFFFF;align=center;" parent="1" vertex="1">
          <mxGeometry x="1820" y="140" width="310" height="70" as="geometry" />
        </mxCell>
        <mxCell id="1428" value="" style="edgeStyle=none;endArrow=none;strokeWidth=3;strokeColor=#F08E81;html=1;" parent="1" source="1352" target="1417" edge="1">
          <mxGeometry x="-170" y="-240" width="100" height="100" as="geometry">
            <mxPoint x="-170" y="-140" as="sourcePoint" />
            <mxPoint x="-70" y="-240" as="targetPoint" />
          </mxGeometry>
        </mxCell>
        <mxCell id="1429" value="" style="edgeStyle=none;endArrow=none;strokeWidth=3;strokeColor=#F08E81;html=1;" parent="1" source="1352" target="1418" edge="1">
          <mxGeometry x="-170" y="-240" width="100" height="100" as="geometry">
            <mxPoint x="-170" y="-140" as="sourcePoint" />
            <mxPoint x="-70" y="-240" as="targetPoint" />
          </mxGeometry>
        </mxCell>
        <mxCell id="1430" value="" style="edgeStyle=none;endArrow=none;strokeWidth=3;strokeColor=#F08E81;html=1;" parent="1" source="1352" target="1419" edge="1">
          <mxGeometry x="-170" y="-240" width="100" height="100" as="geometry">
            <mxPoint x="-170" y="-140" as="sourcePoint" />
            <mxPoint x="-70" y="-240" as="targetPoint" />
          </mxGeometry>
        </mxCell>
        <mxCell id="1431" value="" style="edgeStyle=none;endArrow=none;strokeWidth=3;strokeColor=#F08E81;html=1;" parent="1" source="1352" target="1412" edge="1">
          <mxGeometry x="-170" y="-240" width="100" height="100" as="geometry">
            <mxPoint x="-170" y="-140" as="sourcePoint" />
            <mxPoint x="-70" y="-240" as="targetPoint" />
          </mxGeometry>
        </mxCell>
        <mxCell id="1432" value="" style="edgeStyle=none;endArrow=none;strokeWidth=3;strokeColor=#F08E81;html=1;" parent="1" source="1352" target="1422" edge="1">
          <mxGeometry x="-170" y="-240" width="100" height="100" as="geometry">
            <mxPoint x="-170" y="-140" as="sourcePoint" />
            <mxPoint x="-70" y="-240" as="targetPoint" />
          </mxGeometry>
        </mxCell>
        <mxCell id="1433" value="" style="edgeStyle=none;endArrow=none;strokeWidth=3;strokeColor=#F08E81;html=1;" parent="1" source="1352" target="1421" edge="1">
          <mxGeometry x="-170" y="-240" width="100" height="100" as="geometry">
            <mxPoint x="-170" y="-140" as="sourcePoint" />
            <mxPoint x="-70" y="-240" as="targetPoint" />
          </mxGeometry>
        </mxCell>
        <mxCell id="1439" value="&lt;font style=&quot;font-size: 18px&quot;&gt;Polygonal&lt;/font&gt;" style="rounded=1;fillColor=#64BBE2;strokeColor=none;strokeWidth=3;shadow=0;html=1;fontColor=#FFFFFF;" parent="1" vertex="1">
          <mxGeometry x="2175" y="480" width="125" height="50" as="geometry" />
        </mxCell>
        <mxCell id="1440" value="&lt;font style=&quot;font-size: 18px&quot;&gt;Dilhedral&lt;/font&gt;" style="rounded=1;fillColor=#64BBE2;strokeColor=none;strokeWidth=3;shadow=0;html=1;fontColor=#FFFFFF;" parent="1" vertex="1">
          <mxGeometry x="2295" y="580" width="125" height="50" as="geometry" />
        </mxCell>
        <mxCell id="1441" value="&lt;font style=&quot;font-size: 18px&quot;&gt;Decagonal&lt;/font&gt;" style="rounded=1;fillColor=#64BBE2;strokeColor=none;strokeWidth=3;shadow=0;html=1;fontColor=#FFFFFF;" parent="1" vertex="1">
          <mxGeometry x="2210" y="830" width="130" height="50" as="geometry" />
        </mxCell>
        <mxCell id="1442" value="&lt;font style=&quot;font-size: 18px&quot;&gt;Octogonal&lt;/font&gt;" style="rounded=1;fillColor=#64BBE2;strokeColor=none;strokeWidth=3;shadow=0;html=1;fontColor=#FFFFFF;" parent="1" vertex="1">
          <mxGeometry x="2340" y="740" width="130" height="50" as="geometry" />
        </mxCell>
        <mxCell id="1443" value="&lt;font style=&quot;font-size: 18px&quot;&gt;Dodecagonal&lt;/font&gt;" style="rounded=1;fillColor=#64BBE2;strokeColor=none;strokeWidth=3;shadow=0;html=1;fontColor=#FFFFFF;" parent="1" vertex="1">
          <mxGeometry x="1990" y="820" width="130" height="50" as="geometry" />
        </mxCell>
        <mxCell id="1444" value="&lt;font style=&quot;font-size: 18px&quot;&gt;Icosahedral&lt;/font&gt;" style="rounded=1;fillColor=#64BBE2;strokeColor=none;strokeWidth=3;shadow=0;html=1;fontColor=#FFFFFF;" parent="1" vertex="1">
          <mxGeometry x="1940" y="510" width="130" height="50" as="geometry" />
        </mxCell>
        <mxCell id="1450" value="" style="edgeStyle=none;endArrow=none;strokeWidth=3;strokeColor=#64BBE2;html=1;" parent="1" source="1353" target="1439" edge="1">
          <mxGeometry x="100" y="27" width="100" height="100" as="geometry">
            <mxPoint x="100" y="127" as="sourcePoint" />
            <mxPoint x="200" y="27" as="targetPoint" />
          </mxGeometry>
        </mxCell>
        <mxCell id="1451" value="" style="edgeStyle=none;endArrow=none;strokeWidth=3;strokeColor=#64BBE2;html=1;" parent="1" source="1353" target="1440" edge="1">
          <mxGeometry x="100" y="27" width="100" height="100" as="geometry">
            <mxPoint x="100" y="127" as="sourcePoint" />
            <mxPoint x="200" y="27" as="targetPoint" />
          </mxGeometry>
        </mxCell>
        <mxCell id="1452" value="" style="edgeStyle=none;endArrow=none;strokeWidth=3;strokeColor=#64BBE2;html=1;" parent="1" source="1353" target="1442" edge="1">
          <mxGeometry x="100" y="27" width="100" height="100" as="geometry">
            <mxPoint x="100" y="127" as="sourcePoint" />
            <mxPoint x="200" y="27" as="targetPoint" />
          </mxGeometry>
        </mxCell>
        <mxCell id="1453" value="" style="edgeStyle=none;endArrow=none;strokeWidth=3;strokeColor=#64BBE2;html=1;" parent="1" source="1353" target="1441" edge="1">
          <mxGeometry x="100" y="27" width="100" height="100" as="geometry">
            <mxPoint x="100" y="127" as="sourcePoint" />
            <mxPoint x="200" y="27" as="targetPoint" />
          </mxGeometry>
        </mxCell>
        <mxCell id="1454" value="" style="edgeStyle=none;endArrow=none;strokeWidth=3;strokeColor=#64BBE2;html=1;" parent="1" source="1353" target="1443" edge="1">
          <mxGeometry x="100" y="27" width="100" height="100" as="geometry">
            <mxPoint x="100" y="127" as="sourcePoint" />
            <mxPoint x="200" y="27" as="targetPoint" />
          </mxGeometry>
        </mxCell>
        <mxCell id="1455" value="" style="edgeStyle=none;endArrow=none;strokeWidth=3;strokeColor=#64BBE2;html=1;" parent="1" source="1353" target="1444" edge="1">
          <mxGeometry x="100" y="27" width="100" height="100" as="geometry">
            <mxPoint x="100" y="127" as="sourcePoint" />
            <mxPoint x="200" y="27" as="targetPoint" />
          </mxGeometry>
        </mxCell>
        <mxCell id="1473" value="&lt;font style=&quot;font-size: 18px&quot;&gt;MacKay Double Icosahedron&lt;/font&gt;" style="rounded=1;fillColor=#f5af58;strokeColor=none;strokeWidth=3;shadow=0;html=1;fontColor=#FFFFFF;" parent="1" vertex="1">
          <mxGeometry x="1150" y="1750.5" width="266.5" height="82.5" as="geometry" />
        </mxCell>
        <mxCell id="1474" value="&lt;font style=&quot;font-size: 18px&quot;&gt;Bergman Cluster&lt;/font&gt;" style="rounded=1;fillColor=#f5af58;strokeColor=none;strokeWidth=3;shadow=0;html=1;fontColor=#FFFFFF;" parent="1" vertex="1">
          <mxGeometry x="770" y="1880.5" width="154" height="62.5" as="geometry" />
        </mxCell>
        <mxCell id="1485" value="" style="edgeStyle=none;endArrow=none;strokeWidth=3;strokeColor=#F5AF58;html=1;" parent="1" source="1355" target="1473" edge="1">
          <mxGeometry x="32.5" y="373" width="100" height="100" as="geometry">
            <mxPoint x="32.5" y="473" as="sourcePoint" />
            <mxPoint x="132.5" y="373" as="targetPoint" />
          </mxGeometry>
        </mxCell>
        <mxCell id="1486" value="" style="edgeStyle=none;endArrow=none;strokeWidth=3;strokeColor=#F5AF58;html=1;" parent="1" source="1355" target="1474" edge="1">
          <mxGeometry x="32.5" y="373" width="100" height="100" as="geometry">
            <mxPoint x="32.5" y="473" as="sourcePoint" />
            <mxPoint x="132.5" y="373" as="targetPoint" />
          </mxGeometry>
        </mxCell>
        <mxCell id="1490" value="&lt;font style=&quot;font-size: 18px&quot;&gt;Icosahedral Quasilattice&lt;/font&gt;" style="rounded=1;fillColor=#f08e81;strokeColor=none;strokeWidth=3;shadow=0;html=1;fontColor=#FFFFFF;" parent="1" vertex="1">
          <mxGeometry x="200" y="1440" width="217.5" height="67.5" as="geometry" />
        </mxCell>
        <mxCell id="1491" value="&lt;font style=&quot;font-size: 18px&quot;&gt;Pentagonal Quasilattice&lt;/font&gt;" style="rounded=1;fillColor=#f08e81;strokeColor=none;strokeWidth=3;shadow=0;html=1;fontColor=#FFFFFF;" parent="1" vertex="1">
          <mxGeometry x="-100" y="1190" width="220" height="70" as="geometry" />
        </mxCell>
        <mxCell id="1492" value="&lt;font style=&quot;font-size: 18px&quot;&gt;Trigonal Quasilattice&lt;/font&gt;" style="rounded=1;fillColor=#f08e81;strokeColor=none;strokeWidth=3;shadow=0;html=1;fontColor=#FFFFFF;" parent="1" vertex="1">
          <mxGeometry x="-50" y="1467.5" width="190" height="72.5" as="geometry" />
        </mxCell>
        <mxCell id="1503" value="" style="edgeStyle=none;endArrow=none;strokeWidth=3;strokeColor=#F08E81;html=1;" parent="1" source="1356" target="1490" edge="1">
          <mxGeometry x="-222.5" y="95" width="100" height="100" as="geometry">
            <mxPoint x="-222.5" y="195" as="sourcePoint" />
            <mxPoint x="-122.5" y="95" as="targetPoint" />
          </mxGeometry>
        </mxCell>
        <mxCell id="1504" value="" style="edgeStyle=none;endArrow=none;strokeWidth=3;strokeColor=#F08E81;html=1;" parent="1" source="1356" target="1491" edge="1">
          <mxGeometry x="-222.5" y="95" width="100" height="100" as="geometry">
            <mxPoint x="-222.5" y="195" as="sourcePoint" />
            <mxPoint x="-122.5" y="95" as="targetPoint" />
          </mxGeometry>
        </mxCell>
        <mxCell id="1505" value="" style="edgeStyle=none;endArrow=none;strokeWidth=3;strokeColor=#F08E81;html=1;" parent="1" source="1356" target="1492" edge="1">
          <mxGeometry x="-222.5" y="95" width="100" height="100" as="geometry">
            <mxPoint x="-222.5" y="195" as="sourcePoint" />
            <mxPoint x="-122.5" y="95" as="targetPoint" />
          </mxGeometry>
        </mxCell>
        <mxCell id="1514" style="edgeStyle=orthogonalEdgeStyle;rounded=0;html=1;exitX=0.75;exitY=0;entryX=0.75;entryY=0;startArrow=none;startFill=0;endArrow=block;endFill=1;jettySize=auto;orthogonalLoop=1;strokeColor=#12aab5;strokeWidth=6;fontSize=20;fontColor=#2F5B7C;" parent="1" edge="1">
          <mxGeometry relative="1" as="geometry">
            <mxPoint x="1410" y="25" as="sourcePoint" />
            <mxPoint x="1410" y="25" as="targetPoint" />
          </mxGeometry>
        </mxCell>
        <mxCell id="1515" value="&lt;font style=&quot;font-size: 48px&quot;&gt;Quasi Crystals&lt;/font&gt;" style="ellipse;whiteSpace=wrap;html=1;shadow=0;fontFamily=Helvetica;fontSize=30;fontColor=#2F5B7C;align=center;strokeColor=#2F5B7C;strokeWidth=6;fillColor=#FFFFFF;fontStyle=1;gradientColor=none;" parent="1" vertex="1">
          <mxGeometry x="890" y="610" width="430" height="443" as="geometry" />
        </mxCell>
        <mxCell id="hBe-gOoMLTrsc8ueAhho-1549" value="&lt;b&gt;&lt;font style=&quot;font-size: 24px&quot;&gt;Producing Methods&lt;/font&gt;&lt;/b&gt;" style="ellipse;whiteSpace=wrap;html=1;shadow=0;fontFamily=Helvetica;fontSize=20;fontColor=#FFFFFF;align=center;strokeWidth=3;fillColor=#1699D3;strokeColor=none;" vertex="1" parent="1">
          <mxGeometry x="1986.17" y="1356.5" width="170" height="178" as="geometry" />
        </mxCell>
        <mxCell id="hBe-gOoMLTrsc8ueAhho-1550" value="&lt;font style=&quot;font-size: 18px&quot;&gt;Conventional Casting&lt;/font&gt;" style="rounded=1;fillColor=#64BBE2;strokeColor=none;strokeWidth=3;shadow=0;html=1;fontColor=#FFFFFF;" vertex="1" parent="1">
          <mxGeometry x="2247" y="1349.5" width="210" height="80" as="geometry" />
        </mxCell>
        <mxCell id="hBe-gOoMLTrsc8ueAhho-1551" style="endArrow=none;strokeWidth=6;strokeColor=#1699D3;html=1;" edge="1" parent="1" target="hBe-gOoMLTrsc8ueAhho-1549">
          <mxGeometry relative="1" as="geometry">
            <mxPoint x="1300.001982964931" y="940.5486813405528" as="sourcePoint" />
          </mxGeometry>
        </mxCell>
        <mxCell id="hBe-gOoMLTrsc8ueAhho-1552" value="&lt;span style=&quot;font-size: 18px&quot;&gt;Multilayer Deposition Technique&lt;/span&gt;" style="rounded=1;fillColor=#64BBE2;strokeColor=none;strokeWidth=3;shadow=0;html=1;fontColor=#FFFFFF;" vertex="1" parent="1">
          <mxGeometry x="2167" y="1569.5" width="279.83" height="99.5" as="geometry" />
        </mxCell>
        <mxCell id="hBe-gOoMLTrsc8ueAhho-1553" value="" style="edgeStyle=none;endArrow=none;strokeWidth=3;strokeColor=#64BBE2;html=1;" edge="1" parent="1" source="hBe-gOoMLTrsc8ueAhho-1549" target="hBe-gOoMLTrsc8ueAhho-1552">
          <mxGeometry x="-483.83" y="714.5" width="100" height="100" as="geometry">
            <mxPoint x="-483.83" y="814.5" as="sourcePoint" />
            <mxPoint x="-383.83" y="714.5" as="targetPoint" />
          </mxGeometry>
        </mxCell>
        <mxCell id="hBe-gOoMLTrsc8ueAhho-1554" value="" style="edgeStyle=none;endArrow=none;strokeWidth=3;strokeColor=#64BBE2;html=1;" edge="1" parent="1" source="hBe-gOoMLTrsc8ueAhho-1549" target="hBe-gOoMLTrsc8ueAhho-1550">
          <mxGeometry x="-483.83" y="714.5" width="100" height="100" as="geometry">
            <mxPoint x="-483.83" y="814.5" as="sourcePoint" />
            <mxPoint x="-383.83" y="714.5" as="targetPoint" />
          </mxGeometry>
        </mxCell>
        <mxCell id="hBe-gOoMLTrsc8ueAhho-1555" value="&lt;font style=&quot;font-size: 18px&quot;&gt;Rapid Solidification&lt;/font&gt;" style="rounded=1;fillColor=#64BBE2;strokeColor=none;strokeWidth=3;shadow=0;html=1;fontColor=#FFFFFF;" vertex="1" parent="1">
          <mxGeometry x="1966.3400000000001" y="1229.5" width="189.83" height="70" as="geometry" />
        </mxCell>
        <mxCell id="hBe-gOoMLTrsc8ueAhho-1556" value="" style="edgeStyle=none;endArrow=none;strokeWidth=3;strokeColor=#64BBE2;html=1;" edge="1" parent="1" target="hBe-gOoMLTrsc8ueAhho-1555" source="hBe-gOoMLTrsc8ueAhho-1549">
          <mxGeometry x="-676.3299999999999" y="562.5" width="100" height="100" as="geometry">
            <mxPoint x="1946.17" y="1396.5" as="sourcePoint" />
            <mxPoint x="-576.3299999999999" y="562.5" as="targetPoint" />
          </mxGeometry>
        </mxCell>
        <mxCell id="hBe-gOoMLTrsc8ueAhho-1557" value="&lt;font style=&quot;font-size: 18px&quot;&gt;Laser or Electron Melting Melting&lt;/font&gt;" style="rounded=1;fillColor=#64BBE2;strokeColor=none;strokeWidth=3;shadow=0;html=1;fontColor=#FFFFFF;" vertex="1" parent="1">
          <mxGeometry x="1630" y="1479.5" width="324" height="90" as="geometry" />
        </mxCell>
        <mxCell id="hBe-gOoMLTrsc8ueAhho-1558" value="" style="edgeStyle=none;endArrow=none;strokeWidth=3;strokeColor=#64BBE2;html=1;" edge="1" parent="1" target="hBe-gOoMLTrsc8ueAhho-1557" source="hBe-gOoMLTrsc8ueAhho-1549">
          <mxGeometry x="-992.21" y="750.79" width="100" height="100" as="geometry">
            <mxPoint x="1576.1712816209447" y="1514.5036367371213" as="sourcePoint" />
            <mxPoint x="1914.4993269230772" y="1524.4999999999995" as="targetPoint" />
          </mxGeometry>
        </mxCell>
        <mxCell id="hBe-gOoMLTrsc8ueAhho-1565" value="&lt;font style=&quot;font-size: 18px&quot;&gt;Mechanical Alloying&lt;/font&gt;" style="rounded=1;fillColor=#64BBE2;strokeColor=none;strokeWidth=3;shadow=0;html=1;fontColor=#FFFFFF;" vertex="1" parent="1">
          <mxGeometry x="1857" y="1649.5" width="208.75" height="80.5" as="geometry" />
        </mxCell>
        <mxCell id="hBe-gOoMLTrsc8ueAhho-1566" value="" style="edgeStyle=none;endArrow=none;strokeWidth=3;strokeColor=#64BBE2;html=1;" edge="1" parent="1" target="hBe-gOoMLTrsc8ueAhho-1565" source="hBe-gOoMLTrsc8ueAhho-1549">
          <mxGeometry x="-917.46" y="822.6999999999999" width="100" height="100" as="geometry">
            <mxPoint x="2076.9999208306626" y="1569.500757511709" as="sourcePoint" />
            <mxPoint x="1989.2493269230772" y="1596.4099999999996" as="targetPoint" />
          </mxGeometry>
        </mxCell>
      </root>
    </mxGraphModel>
  </diagram>
</mxfile>
